<svg xmlns="http://www.w3.org/2000/svg" xmlns:xlink="http://www.w3.org/1999/xlink" viewBox="0 0 63.434 16.933"><defs><linearGradient id="a"><stop offset="0" stop-color="#262125"/><stop offset="1" stop-color="#524750"/></linearGradient><linearGradient xlink:href="#a" id="b" x1="20.491" y1="3.964" x2="20.491" y2="11.96" gradientUnits="userSpaceOnUse" gradientTransform="translate(-3.764 -.86) scale(.49622)"/><linearGradient xlink:href="#a" id="e" x1="5.422" y1="1.049" x2="5.422" y2="3.164" gradientUnits="userSpaceOnUse" gradientTransform="matrix(1.87549 0 0 1.87549 -3.764 -.86)"/><linearGradient xlink:href="#a" id="d" x1="20.491" y1="3.964" x2="20.491" y2="11.96" gradientUnits="userSpaceOnUse" gradientTransform="translate(-3.764 -.86) scale(.49622)"/><linearGradient xlink:href="#a" id="c" x1="5.422" y1="1.049" x2="5.422" y2="3.164" gradientUnits="userSpaceOnUse" gradientTransform="matrix(1.87549 0 0 1.87549 -3.758 -.86)"/></defs><g stroke="#fff" stroke-width=".128" paint-order="stroke fill markers"><path d="M5.087 1.106v.66h-.664v1.327h.664v.66h1.318v1.322h1.333V1.106zm.654.66h.664v1.327h-.664z" fill="url(#b)" transform="matrix(4.13333 0 0 4.13333 -18.017 -4.309)"/><path d="M8.401 4.416v-3.31h2.64v.66h.655v2.65h-1.313v-2.65h-.664v2.65z" fill="url(#c)" transform="matrix(4.13333 0 0 4.13333 -18.017 -4.309)"/><path d="M13.018 1.106v.66h-.653v1.986h.653v.664h1.991v-.664h-1.327v-.659h1.987V1.765h-.66v.674h-1.327v-.674h1.327v-.659z" fill="url(#d)" transform="matrix(4.13333 0 0 4.13333 -18.017 -4.309)"/><path d="M16.327 4.416h3.31V2.439h-1.982v-.673h1.981l.005-.657-3.314-.002v1.986h1.991v.66h-1.991z" fill="url(#e)" transform="matrix(4.13333 0 0 4.13333 -18.017 -4.309)"/></g></svg>